999
"DXF R12 Output" (www.mydxf.blogspot.com)
 0 
SECTION
 2 
HEADER
 9 
$ACADVER
 1 
AC1009
 9 
$EXTMIN
 10 
 0 
 20 
 0 
 9 
$EXTMAX
 10 
 8.5 
 20 
 11 
 0 
ENDSEC
 0 
SECTION
 2 
ENTITIES
0
LINE
8
MODELSKETCH_VISIBLE
10
22.383802
20
175.623866
11
27.383626
21
175.623866
0
LINE
8
MODELSKETCH_VISIBLE
10
24.883846
20
175.623866
11
24.883846
21
179.373007
0
LINE
8
MODELSKETCH_VISIBLE
10
24.883846
20
187.289331
11
24.883846
21
183.540190
0
LINE
8
MODELSKETCH_VISIBLE
10
22.383802
20
192.289950
11
22.383802
21
187.289331
0
LINE
8
MODELSKETCH_VISIBLE
10
22.383802
20
187.289331
11
27.383626
21
187.289331
0
LINE
8
MODELSKETCH_VISIBLE
10
27.383626
20
192.289950
11
27.383626
21
187.289331
0
LINE
8
MODELSKETCH_VISIBLE
10
22.383802
20
192.289950
11
27.383626
21
192.289950
0
LINE
8
MODELSKETCH_VISIBLE
10
24.883846
20
192.289950
11
24.883846
21
196.039091
0
LINE
8
MODELSKETCH_VISIBLE
10
24.883846
20
203.958060
11
24.883846
21
200.206273
0
LINE
8
MODELSKETCH_VISIBLE
10
22.383802
20
208.956033
11
22.383802
21
203.958060
0
LINE
8
MODELSKETCH_VISIBLE
10
22.383802
20
203.958060
11
27.383626
21
203.958060
0
LINE
8
MODELSKETCH_VISIBLE
10
27.383626
20
208.956033
11
27.383626
21
203.958060
0
LINE
8
MODELSKETCH_VISIBLE
10
22.383802
20
208.956033
11
27.383626
21
208.956033
0
LINE
8
MODELSKETCH_VISIBLE
10
24.883846
20
208.956033
11
24.883846
21
212.707820
0
LINE
8
MODELSKETCH_VISIBLE
10
24.883846
20
220.624143
11
24.883846
21
216.872356
0
LINE
8
MODELSKETCH_VISIBLE
10
22.383802
20
225.624762
11
22.383802
21
220.624143
0
LINE
8
MODELSKETCH_VISIBLE
10
22.383802
20
220.624143
11
27.383626
21
220.624143
0
LINE
8
MODELSKETCH_VISIBLE
10
27.383626
20
225.624762
11
27.383626
21
220.624143
0
LINE
8
MODELSKETCH_VISIBLE
10
22.383802
20
225.624762
11
27.383626
21
225.624762
0
LINE
8
MODELSKETCH_VISIBLE
10
24.883846
20
225.624762
11
24.883846
21
229.373903
0
LINE
8
MODELSKETCH_VISIBLE
10
24.883846
20
237.290226
11
24.883846
21
233.541085
0
LINE
8
MODELSKETCH_VISIBLE
10
22.383802
20
242.290845
11
22.383802
21
237.290226
0
LINE
8
MODELSKETCH_VISIBLE
10
22.383802
20
237.290226
11
27.383626
21
237.290226
0
LINE
8
MODELSKETCH_VISIBLE
10
27.383626
20
242.290845
11
27.383626
21
237.290226
0
LINE
8
MODELSKETCH_VISIBLE
10
22.383802
20
242.290845
11
27.383626
21
242.290845
0
LINE
8
MODELSKETCH_VISIBLE
10
24.883846
20
242.290845
11
24.883846
21
246.039986
0
LINE
8
MODELSKETCH_VISIBLE
10
24.883846
20
253.956839
11
24.883846
21
250.206904
0
LINE
8
MODELSKETCH_VISIBLE
10
22.383802
20
258.956663
11
22.383802
21
253.956839
0
LINE
8
MODELSKETCH_VISIBLE
10
22.383802
20
253.956839
11
27.383626
21
253.956839
0
LINE
8
MODELSKETCH_VISIBLE
10
27.383626
20
258.956663
11
27.383626
21
253.956839
0
LINE
8
MODELSKETCH_VISIBLE
10
22.383802
20
258.956663
11
27.383626
21
258.956663
0
LINE
8
MODELSKETCH_VISIBLE
10
24.883846
20
258.956663
11
24.883846
21
262.706863
0
LINE
8
MODELSKETCH_VISIBLE
10
18.800290
20
151.456855
11
147.633689
21
151.456855
0
LINE
8
MODELSKETCH_VISIBLE
10
18.800290
20
161.458093
11
147.633689
21
161.458093
0
LINE
8
MODELSKETCH_VISIBLE
10
18.800290
20
168.122938
11
147.633689
21
168.122938
0
LINE
8
MODELSKETCH_VISIBLE
10
18.800290
20
178.124176
11
147.633689
21
178.124176
0
LINE
8
MODELSKETCH_VISIBLE
10
18.800290
20
184.789021
11
147.633689
21
184.789021
0
LINE
8
MODELSKETCH_VISIBLE
10
18.800290
20
194.790259
11
147.633689
21
194.790259
0
LINE
8
MODELSKETCH_VISIBLE
10
18.800290
20
201.457750
11
147.633689
21
201.457750
0
LINE
8
MODELSKETCH_VISIBLE
10
18.800290
20
211.456342
11
147.633689
21
211.456342
0
LINE
8
MODELSKETCH_VISIBLE
10
18.800290
20
218.123834
11
147.633689
21
218.123834
0
LINE
8
MODELSKETCH_VISIBLE
10
18.800290
20
228.122425
11
147.633689
21
228.122425
0
LINE
8
MODELSKETCH_VISIBLE
10
18.800290
20
234.789917
11
147.633689
21
234.789917
0
LINE
8
MODELSKETCH_VISIBLE
10
18.800290
20
244.791154
11
147.633689
21
244.791154
0
LINE
8
MODELSKETCH_VISIBLE
10
18.800290
20
251.456794
11
147.633689
21
251.456794
0
LINE
8
MODELSKETCH_VISIBLE
10
18.800290
20
261.456708
11
147.633689
21
261.456708
0
LINE
8
MODELSKETCH_VISIBLE
10
24.883846
20
270.623451
11
24.883846
21
266.873516
0
LINE
8
MODELSKETCH_VISIBLE
10
24.883846
20
275.623541
11
24.883846
21
279.373476
0
LINE
8
MODELSKETCH_VISIBLE
10
27.383626
20
275.623541
11
27.383626
21
270.623451
0
LINE
8
MODELSKETCH_VISIBLE
10
22.383802
20
275.623541
11
22.383802
21
270.623451
0
LINE
8
MODELSKETCH_VISIBLE
10
22.383802
20
270.623451
11
27.383626
21
270.623451
0
LINE
8
MODELSKETCH_VISIBLE
10
22.383802
20
275.623541
11
27.383626
21
275.623541
0
LINE
8
MODELSKETCH_VISIBLE
10
18.800290
20
268.123406
11
147.633689
21
268.123406
0
LINE
8
MODELSKETCH_VISIBLE
10
18.800290
20
278.123321
11
147.633689
21
278.123321
0
LINE
8
MODELSKETCH_VISIBLE
10
122.383475
20
225.624762
11
127.383565
21
225.624762
0
LINE
8
MODELSKETCH_VISIBLE
10
124.883520
20
225.624762
11
124.883520
21
229.373903
0
LINE
8
MODELSKETCH_VISIBLE
10
124.883520
20
237.290226
11
124.883520
21
233.541085
0
LINE
8
MODELSKETCH_VISIBLE
10
122.383475
20
242.290845
11
122.383475
21
237.290226
0
LINE
8
MODELSKETCH_VISIBLE
10
122.383475
20
237.290226
11
127.383565
21
237.290226
0
LINE
8
MODELSKETCH_VISIBLE
10
127.383565
20
242.290845
11
127.383565
21
237.290226
0
LINE
8
MODELSKETCH_VISIBLE
10
122.383475
20
242.290845
11
127.383565
21
242.290845
0
LINE
8
MODELSKETCH_VISIBLE
10
124.883520
20
242.290845
11
124.883520
21
246.039986
0
LINE
8
MODELSKETCH_VISIBLE
10
124.883520
20
253.956839
11
124.883520
21
250.206904
0
LINE
8
MODELSKETCH_VISIBLE
10
122.383475
20
258.956663
11
122.383475
21
253.956839
0
LINE
8
MODELSKETCH_VISIBLE
10
122.383475
20
253.956839
11
127.383565
21
253.956839
0
LINE
8
MODELSKETCH_VISIBLE
10
127.383565
20
258.956663
11
127.383565
21
253.956839
0
LINE
8
MODELSKETCH_VISIBLE
10
122.383475
20
258.956663
11
127.383565
21
258.956663
0
LINE
8
MODELSKETCH_VISIBLE
10
124.883520
20
258.956663
11
124.883520
21
262.706863
0
LINE
8
MODELSKETCH_VISIBLE
10
124.883520
20
270.623451
11
124.883520
21
266.873516
0
LINE
8
MODELSKETCH_VISIBLE
10
122.383475
20
275.623541
11
122.383475
21
270.623451
0
LINE
8
MODELSKETCH_VISIBLE
10
122.383475
20
270.623451
11
127.383565
21
270.623451
0
LINE
8
MODELSKETCH_VISIBLE
10
127.383565
20
275.623541
11
127.383565
21
270.623451
0
LINE
8
MODELSKETCH_VISIBLE
10
44.050503
20
258.956663
11
44.050503
21
253.956839
0
LINE
8
MODELSKETCH_VISIBLE
10
39.050414
20
253.956839
11
44.050503
21
253.956839
0
LINE
8
MODELSKETCH_VISIBLE
10
39.050414
20
258.956663
11
39.050414
21
253.956839
0
LINE
8
MODELSKETCH_VISIBLE
10
41.550458
20
253.956839
11
41.550458
21
250.206904
0
LINE
8
MODELSKETCH_VISIBLE
10
41.550458
20
242.290845
11
41.550458
21
246.039986
0
LINE
8
MODELSKETCH_VISIBLE
10
39.050414
20
242.290845
11
44.050503
21
242.290845
0
LINE
8
MODELSKETCH_VISIBLE
10
44.050503
20
242.290845
11
44.050503
21
237.290226
0
LINE
8
MODELSKETCH_VISIBLE
10
39.050414
20
237.290226
11
44.050503
21
237.290226
0
LINE
8
MODELSKETCH_VISIBLE
10
39.050414
20
242.290845
11
39.050414
21
237.290226
0
LINE
8
MODELSKETCH_VISIBLE
10
41.550458
20
237.290226
11
41.550458
21
233.541085
0
LINE
8
MODELSKETCH_VISIBLE
10
41.550458
20
225.624762
11
41.550458
21
229.373903
0
LINE
8
MODELSKETCH_VISIBLE
10
39.050414
20
225.624762
11
44.050503
21
225.624762
0
LINE
8
MODELSKETCH_VISIBLE
10
44.050503
20
225.624762
11
44.050503
21
220.624143
0
LINE
8
MODELSKETCH_VISIBLE
10
39.050414
20
225.624762
11
39.050414
21
220.624143
0
LINE
8
MODELSKETCH_VISIBLE
10
41.550458
20
220.624143
11
41.550458
21
216.872356
0
LINE
8
MODELSKETCH_VISIBLE
10
41.550458
20
208.956033
11
41.550458
21
212.707820
0
LINE
8
MODELSKETCH_VISIBLE
10
39.050414
20
208.956033
11
44.050503
21
208.956033
0
LINE
8
MODELSKETCH_VISIBLE
10
44.050503
20
208.956033
11
44.050503
21
203.958060
0
LINE
8
MODELSKETCH_VISIBLE
10
39.050414
20
203.958060
11
44.050503
21
203.958060
0
LINE
8
MODELSKETCH_VISIBLE
10
39.050414
20
208.956033
11
39.050414
21
203.958060
0
LINE
8
MODELSKETCH_VISIBLE
10
41.550458
20
203.958060
11
41.550458
21
200.206273
0
LINE
8
MODELSKETCH_VISIBLE
10
41.550458
20
192.289950
11
41.550458
21
196.039091
0
LINE
8
MODELSKETCH_VISIBLE
10
39.050414
20
192.289950
11
44.050503
21
192.289950
0
LINE
8
MODELSKETCH_VISIBLE
10
44.050503
20
192.289950
11
44.050503
21
187.289331
0
LINE
8
MODELSKETCH_VISIBLE
10
39.050414
20
187.289331
11
44.050503
21
187.289331
0
LINE
8
MODELSKETCH_VISIBLE
10
39.050414
20
192.289950
11
39.050414
21
187.289331
0
LINE
8
MODELSKETCH_VISIBLE
10
41.550458
20
187.289331
11
41.550458
21
183.540190
0
LINE
8
MODELSKETCH_VISIBLE
10
41.550458
20
175.623866
11
41.550458
21
179.373007
0
LINE
8
MODELSKETCH_VISIBLE
10
39.050414
20
175.623866
11
44.050503
21
175.623866
0
LINE
8
MODELSKETCH_VISIBLE
10
44.050503
20
175.623866
11
44.050503
21
170.623248
0
LINE
8
MODELSKETCH_VISIBLE
10
39.050414
20
170.623248
11
44.050503
21
170.623248
0
LINE
8
MODELSKETCH_VISIBLE
10
39.050414
20
175.623866
11
39.050414
21
170.623248
0
LINE
8
MODELSKETCH_VISIBLE
10
41.550458
20
170.623248
11
41.550458
21
166.874107
0
LINE
8
MODELSKETCH_VISIBLE
10
41.550458
20
158.957783
11
41.550458
21
162.706924
0
LINE
8
MODELSKETCH_VISIBLE
10
39.050414
20
158.957783
11
44.050503
21
158.957783
0
LINE
8
MODELSKETCH_VISIBLE
10
44.050503
20
158.957783
11
44.050503
21
153.957165
0
LINE
8
MODELSKETCH_VISIBLE
10
39.050414
20
153.957165
11
44.050503
21
153.957165
0
LINE
8
MODELSKETCH_VISIBLE
10
39.050414
20
158.957783
11
39.050414
21
153.957165
0
LINE
8
MODELSKETCH_VISIBLE
10
41.550458
20
153.957165
11
41.550458
21
150.208023
0
LINE
8
MODELSKETCH_VISIBLE
10
58.217018
20
275.623541
11
58.217018
21
279.373476
0
LINE
8
MODELSKETCH_VISIBLE
10
55.717026
20
275.623541
11
60.717010
21
275.623541
0
LINE
8
MODELSKETCH_VISIBLE
10
60.717010
20
275.623541
11
60.717010
21
270.623451
0
LINE
8
MODELSKETCH_VISIBLE
10
55.717026
20
270.623451
11
60.717010
21
270.623451
0
LINE
8
MODELSKETCH_VISIBLE
10
55.717026
20
275.623541
11
55.717026
21
270.623451
0
LINE
8
MODELSKETCH_VISIBLE
10
58.217018
20
270.623451
11
58.217018
21
266.873516
0
LINE
8
MODELSKETCH_VISIBLE
10
58.217018
20
258.956663
11
58.217018
21
262.706863
0
LINE
8
MODELSKETCH_VISIBLE
10
55.717026
20
258.956663
11
60.717010
21
258.956663
0
LINE
8
MODELSKETCH_VISIBLE
10
60.717010
20
258.956663
11
60.717010
21
253.956839
0
LINE
8
MODELSKETCH_VISIBLE
10
55.717026
20
253.956839
11
60.717010
21
253.956839
0
LINE
8
MODELSKETCH_VISIBLE
10
55.717026
20
258.956663
11
55.717026
21
253.956839
0
LINE
8
MODELSKETCH_VISIBLE
10
55.717026
20
242.290845
11
60.717010
21
242.290845
0
LINE
8
MODELSKETCH_VISIBLE
10
60.717010
20
242.290845
11
60.717010
21
237.290226
0
LINE
8
MODELSKETCH_VISIBLE
10
55.717026
20
237.290226
11
60.717010
21
237.290226
0
LINE
8
MODELSKETCH_VISIBLE
10
55.717026
20
242.290845
11
55.717026
21
237.290226
0
LINE
8
MODELSKETCH_VISIBLE
10
58.217018
20
237.290226
11
58.217018
21
233.541085
0
LINE
8
MODELSKETCH_VISIBLE
10
58.217018
20
225.624762
11
58.217018
21
229.373903
0
LINE
8
MODELSKETCH_VISIBLE
10
55.717026
20
225.624762
11
60.717010
21
225.624762
0
LINE
8
MODELSKETCH_VISIBLE
10
60.717010
20
225.624762
11
60.717010
21
220.624143
0
LINE
8
MODELSKETCH_VISIBLE
10
55.717026
20
220.624143
11
60.717010
21
220.624143
0
LINE
8
MODELSKETCH_VISIBLE
10
55.717026
20
225.624762
11
55.717026
21
220.624143
0
LINE
8
MODELSKETCH_VISIBLE
10
58.217018
20
220.624143
11
58.217018
21
216.872356
0
LINE
8
MODELSKETCH_VISIBLE
10
58.217018
20
208.956033
11
58.217018
21
212.707820
0
LINE
8
MODELSKETCH_VISIBLE
10
55.717026
20
208.956033
11
60.717010
21
208.956033
0
LINE
8
MODELSKETCH_VISIBLE
10
60.717010
20
208.956033
11
60.717010
21
203.958060
0
LINE
8
MODELSKETCH_VISIBLE
10
55.717026
20
203.958060
11
60.717010
21
203.958060
0
LINE
8
MODELSKETCH_VISIBLE
10
55.717026
20
208.956033
11
55.717026
21
203.958060
0
LINE
8
MODELSKETCH_VISIBLE
10
58.217018
20
203.958060
11
58.217018
21
200.206273
0
LINE
8
MODELSKETCH_VISIBLE
10
58.217018
20
192.289950
11
58.217018
21
196.039091
0
LINE
8
MODELSKETCH_VISIBLE
10
55.717026
20
192.289950
11
60.717010
21
192.289950
0
LINE
8
MODELSKETCH_VISIBLE
10
60.717010
20
192.289950
11
60.717010
21
187.289331
0
LINE
8
MODELSKETCH_VISIBLE
10
55.717026
20
187.289331
11
60.717010
21
187.289331
0
LINE
8
MODELSKETCH_VISIBLE
10
55.717026
20
192.289950
11
55.717026
21
187.289331
0
LINE
8
MODELSKETCH_VISIBLE
10
58.217018
20
187.289331
11
58.217018
21
183.540190
0
LINE
8
MODELSKETCH_VISIBLE
10
58.217018
20
175.623866
11
58.217018
21
179.373007
0
LINE
8
MODELSKETCH_VISIBLE
10
55.717026
20
175.623866
11
60.717010
21
175.623866
0
LINE
8
MODELSKETCH_VISIBLE
10
60.717010
20
175.623866
11
60.717010
21
170.623248
0
LINE
8
MODELSKETCH_VISIBLE
10
55.717026
20
170.623248
11
60.717010
21
170.623248
0
LINE
8
MODELSKETCH_VISIBLE
10
55.717026
20
175.623866
11
55.717026
21
170.623248
0
LINE
8
MODELSKETCH_VISIBLE
10
58.217018
20
170.623248
11
58.217018
21
166.874107
0
LINE
8
MODELSKETCH_VISIBLE
10
127.383565
20
225.624762
11
127.383565
21
220.624143
0
LINE
8
MODELSKETCH_VISIBLE
10
122.383475
20
220.624143
11
127.383565
21
220.624143
0
LINE
8
MODELSKETCH_VISIBLE
10
122.383475
20
225.624762
11
122.383475
21
220.624143
0
LINE
8
MODELSKETCH_VISIBLE
10
124.883520
20
220.624143
11
124.883520
21
216.872356
0
LINE
8
MODELSKETCH_VISIBLE
10
122.383475
20
208.956033
11
127.383565
21
208.956033
0
LINE
8
MODELSKETCH_VISIBLE
10
139.050352
20
220.624143
11
144.050177
21
220.624143
0
LINE
8
MODELSKETCH_VISIBLE
10
139.050352
20
225.624762
11
139.050352
21
220.624143
0
LINE
8
MODELSKETCH_VISIBLE
10
141.550132
20
220.624143
11
141.550132
21
216.872356
0
LINE
8
MODELSKETCH_VISIBLE
10
141.550132
20
208.956033
11
141.550132
21
212.707820
0
LINE
8
MODELSKETCH_VISIBLE
10
139.050352
20
208.956033
11
144.050177
21
208.956033
0
LINE
8
MODELSKETCH_VISIBLE
10
144.050177
20
208.956033
11
144.050177
21
203.958060
0
LINE
8
MODELSKETCH_VISIBLE
10
139.050352
20
203.958060
11
144.050177
21
203.958060
0
LINE
8
MODELSKETCH_VISIBLE
10
141.550132
20
192.289950
11
141.550132
21
196.039091
0
LINE
8
MODELSKETCH_VISIBLE
10
139.050352
20
192.289950
11
144.050177
21
192.289950
0
LINE
8
MODELSKETCH_VISIBLE
10
144.050177
20
192.289950
11
144.050177
21
187.289331
0
LINE
8
MODELSKETCH_VISIBLE
10
139.050352
20
187.289331
11
144.050177
21
187.289331
0
LINE
8
MODELSKETCH_VISIBLE
10
139.050352
20
192.289950
11
139.050352
21
187.289331
0
LINE
8
MODELSKETCH_VISIBLE
10
141.550132
20
187.289331
11
141.550132
21
183.540190
0
LINE
8
MODELSKETCH_VISIBLE
10
139.050352
20
175.623866
11
144.050177
21
175.623866
0
LINE
8
MODELSKETCH_VISIBLE
10
144.050177
20
175.623866
11
144.050177
21
170.623248
0
LINE
8
MODELSKETCH_VISIBLE
10
139.050352
20
170.623248
11
144.050177
21
170.623248
0
LINE
8
MODELSKETCH_VISIBLE
10
27.383626
20
175.623866
11
27.383626
21
170.623248
0
LINE
8
MODELSKETCH_VISIBLE
10
147.633689
20
280.706710
11
147.633689
21
148.874525
0
LINE
8
MODELSKETCH_VISIBLE
10
39.050414
20
270.623451
11
44.050503
21
270.623451
0
LINE
8
MODELSKETCH_VISIBLE
10
141.550132
20
203.958060
11
141.550132
21
200.206273
0
LINE
8
MODELSKETCH_VISIBLE
10
58.217018
20
242.290845
11
58.217018
21
246.039986
0
LINE
8
MODELSKETCH_VISIBLE
10
105.716969
20
220.624143
11
110.716952
21
220.624143
0
LINE
8
MODELSKETCH_VISIBLE
10
141.550132
20
258.956663
11
141.550132
21
262.706863
0
LINE
8
MODELSKETCH_VISIBLE
10
141.550132
20
175.623866
11
141.550132
21
179.373007
0
LINE
8
MODELSKETCH_VISIBLE
10
124.883520
20
208.956033
11
124.883520
21
212.707820
0
LINE
8
MODELSKETCH_VISIBLE
10
141.550132
20
153.957165
11
141.550132
21
150.208023
0
LINE
8
MODELSKETCH_VISIBLE
10
22.383802
20
158.957783
11
22.383802
21
153.957165
0
LINE
8
MODELSKETCH_VISIBLE
10
139.050352
20
175.623866
11
139.050352
21
170.623248
0
LINE
8
MODELSKETCH_VISIBLE
10
22.383802
20
170.623248
11
27.383626
21
170.623248
0
LINE
8
MODELSKETCH_VISIBLE
10
139.050352
20
208.956033
11
139.050352
21
203.958060
0
LINE
8
MODELSKETCH_VISIBLE
10
58.217018
20
253.956839
11
58.217018
21
250.206904
0
LINE
8
MODELSKETCH_VISIBLE
10
110.716952
20
225.624762
11
110.716952
21
220.624143
0
LINE
8
MODELSKETCH_VISIBLE
10
141.550132
20
270.623451
11
141.550132
21
266.873516
0
LINE
8
MODELSKETCH_VISIBLE
10
18.800290
20
148.874525
11
147.633689
21
148.874525
0
LINE
8
MODELSKETCH_VISIBLE
10
44.050503
20
275.623541
11
44.050503
21
270.623451
0
LINE
8
MODELSKETCH_VISIBLE
10
144.050177
20
225.624762
11
144.050177
21
220.624143
0
LINE
8
MODELSKETCH_VISIBLE
10
39.050414
20
220.624143
11
44.050503
21
220.624143
0
LINE
8
MODELSKETCH_VISIBLE
10
141.550132
20
158.957783
11
141.550132
21
162.706924
0
LINE
8
MODELSKETCH_VISIBLE
10
24.883846
20
170.623248
11
24.883846
21
166.874107
0
LINE
8
MODELSKETCH_VISIBLE
10
139.050352
20
153.957165
11
144.050177
21
153.957165
0
LINE
8
MODELSKETCH_VISIBLE
10
27.383626
20
158.957783
11
27.383626
21
153.957165
0
LINE
8
MODELSKETCH_VISIBLE
10
139.050352
20
158.957783
11
139.050352
21
153.957165
0
LINE
8
MODELSKETCH_VISIBLE
10
22.383802
20
153.957165
11
27.383626
21
153.957165
0
LINE
8
MODELSKETCH_VISIBLE
10
18.800290
20
280.706710
11
147.633689
21
280.706710
0
LINE
8
MODELSKETCH_VISIBLE
10
39.050414
20
275.623541
11
44.050503
21
275.623541
0
LINE
8
MODELSKETCH_VISIBLE
10
139.050352
20
258.956663
11
139.050352
21
253.956839
0
LINE
8
MODELSKETCH_VISIBLE
10
144.050177
20
158.957783
11
144.050177
21
153.957165
0
LINE
8
MODELSKETCH_VISIBLE
10
22.383802
20
158.957783
11
27.383626
21
158.957783
0
LINE
8
MODELSKETCH_VISIBLE
10
139.050352
20
158.957783
11
144.050177
21
158.957783
0
LINE
8
MODELSKETCH_VISIBLE
10
24.883846
20
158.957783
11
24.883846
21
162.706924
0
LINE
8
MODELSKETCH_VISIBLE
10
141.550132
20
170.623248
11
141.550132
21
166.874107
0
LINE
8
MODELSKETCH_VISIBLE
10
22.383802
20
175.623866
11
22.383802
21
170.623248
0
LINE
8
MODELSKETCH_VISIBLE
10
139.050352
20
225.624762
11
144.050177
21
225.624762
0
LINE
8
MODELSKETCH_VISIBLE
10
141.550132
20
225.624762
11
141.550132
21
229.373903
0
LINE
8
MODELSKETCH_VISIBLE
10
141.550132
20
237.290226
11
141.550132
21
233.541085
0
LINE
8
MODELSKETCH_VISIBLE
10
139.050352
20
242.290845
11
139.050352
21
237.290226
0
LINE
8
MODELSKETCH_VISIBLE
10
139.050352
20
237.290226
11
144.050177
21
237.290226
0
LINE
8
MODELSKETCH_VISIBLE
10
91.550322
20
170.623248
11
91.550322
21
166.874107
0
LINE
8
MODELSKETCH_VISIBLE
10
144.050177
20
242.290845
11
144.050177
21
237.290226
0
LINE
8
MODELSKETCH_VISIBLE
10
139.050352
20
242.290845
11
144.050177
21
242.290845
0
LINE
8
MODELSKETCH_VISIBLE
10
141.550132
20
242.290845
11
141.550132
21
246.039986
0
LINE
8
MODELSKETCH_VISIBLE
10
141.550132
20
253.956839
11
141.550132
21
250.206904
0
LINE
8
MODELSKETCH_VISIBLE
10
139.050352
20
253.956839
11
144.050177
21
253.956839
0
LINE
8
MODELSKETCH_VISIBLE
10
144.050177
20
258.956663
11
144.050177
21
253.956839
0
LINE
8
MODELSKETCH_VISIBLE
10
139.050352
20
258.956663
11
144.050177
21
258.956663
0
LINE
8
MODELSKETCH_VISIBLE
10
139.050352
20
275.623541
11
139.050352
21
270.623451
0
LINE
8
MODELSKETCH_VISIBLE
10
139.050352
20
270.623451
11
144.050177
21
270.623451
0
LINE
8
MODELSKETCH_VISIBLE
10
144.050177
20
275.623541
11
144.050177
21
270.623451
0
LINE
8
MODELSKETCH_VISIBLE
10
139.050352
20
275.623541
11
144.050177
21
275.623541
0
LINE
8
MODELSKETCH_VISIBLE
10
141.550132
20
275.623541
11
141.550132
21
279.373476
0
LINE
8
MODELSKETCH_VISIBLE
10
124.883520
20
153.957165
11
124.883520
21
150.208023
0
LINE
8
MODELSKETCH_VISIBLE
10
18.800290
20
280.706710
11
18.800290
21
148.874525
0
LINE
8
MODELSKETCH_VISIBLE
10
122.383475
20
158.957783
11
122.383475
21
153.957165
0
LINE
8
MODELSKETCH_VISIBLE
10
122.383475
20
153.957165
11
127.383565
21
153.957165
0
LINE
8
MODELSKETCH_VISIBLE
10
127.383565
20
158.957783
11
127.383565
21
153.957165
0
LINE
8
MODELSKETCH_VISIBLE
10
122.383475
20
158.957783
11
127.383565
21
158.957783
0
LINE
8
MODELSKETCH_VISIBLE
10
124.883520
20
158.957783
11
124.883520
21
162.706924
0
LINE
8
MODELSKETCH_VISIBLE
10
124.883520
20
170.623248
11
124.883520
21
166.874107
0
LINE
8
MODELSKETCH_VISIBLE
10
122.383475
20
175.623866
11
122.383475
21
170.623248
0
LINE
8
MODELSKETCH_VISIBLE
10
122.383475
20
170.623248
11
127.383565
21
170.623248
0
LINE
8
MODELSKETCH_VISIBLE
10
127.383565
20
175.623866
11
127.383565
21
170.623248
0
LINE
8
MODELSKETCH_VISIBLE
10
122.383475
20
175.623866
11
127.383565
21
175.623866
0
LINE
8
MODELSKETCH_VISIBLE
10
124.883520
20
175.623866
11
124.883520
21
179.373007
0
LINE
8
MODELSKETCH_VISIBLE
10
124.883520
20
187.289331
11
124.883520
21
183.540190
0
LINE
8
MODELSKETCH_VISIBLE
10
122.383475
20
192.289950
11
122.383475
21
187.289331
0
LINE
8
MODELSKETCH_VISIBLE
10
122.383475
20
187.289331
11
127.383565
21
187.289331
0
LINE
8
MODELSKETCH_VISIBLE
10
127.383565
20
192.289950
11
127.383565
21
187.289331
0
LINE
8
MODELSKETCH_VISIBLE
10
122.383475
20
192.289950
11
127.383565
21
192.289950
0
LINE
8
MODELSKETCH_VISIBLE
10
124.883520
20
192.289950
11
124.883520
21
196.039091
0
LINE
8
MODELSKETCH_VISIBLE
10
124.883520
20
203.958060
11
124.883520
21
200.206273
0
LINE
8
MODELSKETCH_VISIBLE
10
122.383475
20
208.956033
11
122.383475
21
203.958060
0
LINE
8
MODELSKETCH_VISIBLE
10
122.383475
20
203.958060
11
127.383565
21
203.958060
0
LINE
8
MODELSKETCH_VISIBLE
10
127.383565
20
208.956033
11
127.383565
21
203.958060
0
LINE
8
MODELSKETCH_VISIBLE
10
39.050414
20
258.956663
11
44.050503
21
258.956663
0
LINE
8
MODELSKETCH_VISIBLE
10
41.550458
20
258.956663
11
41.550458
21
262.706863
0
LINE
8
MODELSKETCH_VISIBLE
10
41.550458
20
270.623451
11
41.550458
21
266.873516
0
LINE
8
MODELSKETCH_VISIBLE
10
39.050414
20
275.623541
11
39.050414
21
270.623451
0
LINE
8
MODELSKETCH_VISIBLE
10
24.883846
20
153.957165
11
24.883846
21
150.208023
0
LINE
8
MODELSKETCH_VISIBLE
10
41.550458
20
275.623541
11
41.550458
21
279.373476
0
LINE
8
MODELSKETCH_VISIBLE
10
58.217018
20
158.957783
11
58.217018
21
162.706924
0
LINE
8
MODELSKETCH_VISIBLE
10
55.717026
20
158.957783
11
60.717010
21
158.957783
0
LINE
8
MODELSKETCH_VISIBLE
10
60.717010
20
158.957783
11
60.717010
21
153.957165
0
LINE
8
MODELSKETCH_VISIBLE
10
55.717026
20
153.957165
11
60.717010
21
153.957165
0
LINE
8
MODELSKETCH_VISIBLE
10
55.717026
20
158.957783
11
55.717026
21
153.957165
0
LINE
8
MODELSKETCH_VISIBLE
10
58.217018
20
153.957165
11
58.217018
21
150.208023
0
LINE
8
MODELSKETCH_VISIBLE
10
74.883656
20
275.623541
11
74.883656
21
279.373476
0
LINE
8
MODELSKETCH_VISIBLE
10
72.383665
20
275.623541
11
77.383675
21
275.623541
0
LINE
8
MODELSKETCH_VISIBLE
10
77.383675
20
275.623541
11
77.383675
21
270.623451
0
LINE
8
MODELSKETCH_VISIBLE
10
72.383665
20
270.623451
11
77.383675
21
270.623451
0
LINE
8
MODELSKETCH_VISIBLE
10
72.383665
20
275.623541
11
72.383665
21
270.623451
0
LINE
8
MODELSKETCH_VISIBLE
10
74.883656
20
270.623451
11
74.883656
21
266.873516
0
LINE
8
MODELSKETCH_VISIBLE
10
74.883656
20
258.956663
11
74.883656
21
262.706863
0
LINE
8
MODELSKETCH_VISIBLE
10
72.383665
20
258.956663
11
77.383675
21
258.956663
0
LINE
8
MODELSKETCH_VISIBLE
10
77.383675
20
258.956663
11
77.383675
21
253.956839
0
LINE
8
MODELSKETCH_VISIBLE
10
72.383665
20
253.956839
11
77.383675
21
253.956839
0
LINE
8
MODELSKETCH_VISIBLE
10
72.383665
20
258.956663
11
72.383665
21
253.956839
0
LINE
8
MODELSKETCH_VISIBLE
10
74.883656
20
253.956839
11
74.883656
21
250.206904
0
LINE
8
MODELSKETCH_VISIBLE
10
74.883656
20
242.290845
11
74.883656
21
246.039986
0
LINE
8
MODELSKETCH_VISIBLE
10
72.383665
20
242.290845
11
77.383675
21
242.290845
0
LINE
8
MODELSKETCH_VISIBLE
10
77.383675
20
242.290845
11
77.383675
21
237.290226
0
LINE
8
MODELSKETCH_VISIBLE
10
72.383665
20
237.290226
11
77.383675
21
237.290226
0
LINE
8
MODELSKETCH_VISIBLE
10
72.383665
20
242.290845
11
72.383665
21
237.290226
0
LINE
8
MODELSKETCH_VISIBLE
10
74.883656
20
237.290226
11
74.883656
21
233.541085
0
LINE
8
MODELSKETCH_VISIBLE
10
74.883656
20
225.624762
11
74.883656
21
229.373903
0
LINE
8
MODELSKETCH_VISIBLE
10
72.383665
20
225.624762
11
77.383675
21
225.624762
0
LINE
8
MODELSKETCH_VISIBLE
10
77.383675
20
225.624762
11
77.383675
21
220.624143
0
LINE
8
MODELSKETCH_VISIBLE
10
72.383665
20
220.624143
11
77.383675
21
220.624143
0
LINE
8
MODELSKETCH_VISIBLE
10
72.383665
20
225.624762
11
72.383665
21
220.624143
0
LINE
8
MODELSKETCH_VISIBLE
10
74.883656
20
220.624143
11
74.883656
21
216.872356
0
LINE
8
MODELSKETCH_VISIBLE
10
74.883656
20
208.956033
11
74.883656
21
212.707820
0
LINE
8
MODELSKETCH_VISIBLE
10
72.383665
20
208.956033
11
77.383675
21
208.956033
0
LINE
8
MODELSKETCH_VISIBLE
10
77.383675
20
208.956033
11
77.383675
21
203.958060
0
LINE
8
MODELSKETCH_VISIBLE
10
72.383665
20
203.958060
11
77.383675
21
203.958060
0
LINE
8
MODELSKETCH_VISIBLE
10
117.650278
20
181.456879
11
117.502907
21
182.006878
0
LINE
8
MODELSKETCH_VISIBLE
10
117.502907
20
182.006878
11
117.100279
21
182.409506
0
LINE
8
MODELSKETCH_VISIBLE
10
117.100279
20
182.409506
11
116.550280
21
182.556878
0
LINE
8
MODELSKETCH_VISIBLE
10
116.550280
20
182.556878
11
116.000281
21
182.409506
0
LINE
8
MODELSKETCH_VISIBLE
10
116.000281
20
182.409506
11
115.597653
21
182.006878
0
LINE
8
MODELSKETCH_VISIBLE
10
115.597653
20
182.006878
11
115.450281
21
181.456879
0
LINE
8
MODELSKETCH_VISIBLE
10
115.450281
20
181.456879
11
115.597653
21
180.906880
0
LINE
8
MODELSKETCH_VISIBLE
10
115.597653
20
180.906880
11
116.000281
21
180.504252
0
LINE
8
MODELSKETCH_VISIBLE
10
116.000281
20
180.504252
11
116.550280
21
180.356881
0
LINE
8
MODELSKETCH_VISIBLE
10
116.550280
20
180.356881
11
117.100279
21
180.504252
0
LINE
8
MODELSKETCH_VISIBLE
10
117.100279
20
180.504252
11
117.502907
21
180.906880
0
LINE
8
MODELSKETCH_VISIBLE
10
117.502907
20
180.906880
11
117.650278
21
181.456879
0
LINE
8
MODELSKETCH_VISIBLE
10
117.650278
20
181.456879
11
117.650278
21
181.456879
0
LINE
8
MODELSKETCH_VISIBLE
10
72.383665
20
208.956033
11
72.383665
21
203.958060
0
LINE
8
MODELSKETCH_VISIBLE
10
74.883656
20
203.958060
11
74.883656
21
200.206273
0
LINE
8
MODELSKETCH_VISIBLE
10
74.883656
20
192.289950
11
74.883656
21
196.039091
0
LINE
8
MODELSKETCH_VISIBLE
10
72.383665
20
192.289950
11
77.383675
21
192.289950
0
LINE
8
MODELSKETCH_VISIBLE
10
77.383675
20
192.289950
11
77.383675
21
187.289331
0
LINE
8
MODELSKETCH_VISIBLE
10
72.383665
20
187.289331
11
77.383675
21
187.289331
0
LINE
8
MODELSKETCH_VISIBLE
10
72.383665
20
192.289950
11
72.383665
21
187.289331
0
LINE
8
MODELSKETCH_VISIBLE
10
74.883656
20
187.289331
11
74.883656
21
183.540190
0
LINE
8
MODELSKETCH_VISIBLE
10
74.883656
20
175.623866
11
74.883656
21
179.373007
0
LINE
8
MODELSKETCH_VISIBLE
10
72.383665
20
175.623866
11
77.383675
21
175.623866
0
LINE
8
MODELSKETCH_VISIBLE
10
77.383675
20
175.623866
11
77.383675
21
170.623248
0
LINE
8
MODELSKETCH_VISIBLE
10
72.383665
20
170.623248
11
77.383675
21
170.623248
0
LINE
8
MODELSKETCH_VISIBLE
10
72.383665
20
175.623866
11
72.383665
21
170.623248
0
LINE
8
MODELSKETCH_VISIBLE
10
74.883656
20
170.623248
11
74.883656
21
166.874107
0
LINE
8
MODELSKETCH_VISIBLE
10
74.883656
20
158.957783
11
74.883656
21
162.706924
0
LINE
8
MODELSKETCH_VISIBLE
10
72.383665
20
158.957783
11
77.383675
21
158.957783
0
LINE
8
MODELSKETCH_VISIBLE
10
77.383675
20
158.957783
11
77.383675
21
153.957165
0
LINE
8
MODELSKETCH_VISIBLE
10
72.383665
20
153.957165
11
77.383675
21
153.957165
0
LINE
8
MODELSKETCH_VISIBLE
10
72.383665
20
158.957783
11
72.383665
21
153.957165
0
LINE
8
MODELSKETCH_VISIBLE
10
74.883656
20
153.957165
11
74.883656
21
150.208023
0
LINE
8
MODELSKETCH_VISIBLE
10
91.550322
20
275.623541
11
91.550322
21
279.373476
0
LINE
8
MODELSKETCH_VISIBLE
10
89.050303
20
275.623541
11
94.050314
21
275.623541
0
LINE
8
MODELSKETCH_VISIBLE
10
94.050314
20
275.623541
11
94.050314
21
270.623451
0
LINE
8
MODELSKETCH_VISIBLE
10
89.050303
20
270.623451
11
94.050314
21
270.623451
0
LINE
8
MODELSKETCH_VISIBLE
10
89.050303
20
275.623541
11
89.050303
21
270.623451
0
LINE
8
MODELSKETCH_VISIBLE
10
91.550322
20
270.623451
11
91.550322
21
266.873516
0
LINE
8
MODELSKETCH_VISIBLE
10
91.550322
20
258.956663
11
91.550322
21
262.706863
0
LINE
8
MODELSKETCH_VISIBLE
10
89.050303
20
258.956663
11
94.050314
21
258.956663
0
LINE
8
MODELSKETCH_VISIBLE
10
94.050314
20
258.956663
11
94.050314
21
253.956839
0
LINE
8
MODELSKETCH_VISIBLE
10
89.050303
20
253.956839
11
94.050314
21
253.956839
0
LINE
8
MODELSKETCH_VISIBLE
10
89.050303
20
258.956663
11
89.050303
21
253.956839
0
LINE
8
MODELSKETCH_VISIBLE
10
91.550322
20
253.956839
11
91.550322
21
250.206904
0
LINE
8
MODELSKETCH_VISIBLE
10
91.550322
20
242.290845
11
91.550322
21
246.039986
0
LINE
8
MODELSKETCH_VISIBLE
10
89.050303
20
242.290845
11
94.050314
21
242.290845
0
LINE
8
MODELSKETCH_VISIBLE
10
94.050314
20
242.290845
11
94.050314
21
237.290226
0
LINE
8
MODELSKETCH_VISIBLE
10
89.050303
20
237.290226
11
94.050314
21
237.290226
0
LINE
8
MODELSKETCH_VISIBLE
10
89.050303
20
242.290845
11
89.050303
21
237.290226
0
LINE
8
MODELSKETCH_VISIBLE
10
91.550322
20
237.290226
11
91.550322
21
233.541085
0
LINE
8
MODELSKETCH_VISIBLE
10
91.550322
20
225.624762
11
91.550322
21
229.373903
0
LINE
8
MODELSKETCH_VISIBLE
10
89.050303
20
225.624762
11
94.050314
21
225.624762
0
LINE
8
MODELSKETCH_VISIBLE
10
94.050314
20
225.624762
11
94.050314
21
220.624143
0
LINE
8
MODELSKETCH_VISIBLE
10
89.050303
20
220.624143
11
94.050314
21
220.624143
0
LINE
8
MODELSKETCH_VISIBLE
10
89.050303
20
225.624762
11
89.050303
21
220.624143
0
LINE
8
MODELSKETCH_VISIBLE
10
91.550322
20
220.624143
11
91.550322
21
216.872356
0
LINE
8
MODELSKETCH_VISIBLE
10
91.550322
20
208.956033
11
91.550322
21
212.707820
0
LINE
8
MODELSKETCH_VISIBLE
10
89.050303
20
208.956033
11
94.050314
21
208.956033
0
LINE
8
MODELSKETCH_VISIBLE
10
94.050314
20
208.956033
11
94.050314
21
203.958060
0
LINE
8
MODELSKETCH_VISIBLE
10
89.050303
20
203.958060
11
94.050314
21
203.958060
0
LINE
8
MODELSKETCH_VISIBLE
10
89.050303
20
208.956033
11
89.050303
21
203.958060
0
LINE
8
MODELSKETCH_VISIBLE
10
91.550322
20
203.958060
11
91.550322
21
200.206273
0
LINE
8
MODELSKETCH_VISIBLE
10
91.550322
20
192.289950
11
91.550322
21
196.039091
0
LINE
8
MODELSKETCH_VISIBLE
10
89.050303
20
192.289950
11
94.050314
21
192.289950
0
LINE
8
MODELSKETCH_VISIBLE
10
94.050314
20
192.289950
11
94.050314
21
187.289331
0
LINE
8
MODELSKETCH_VISIBLE
10
89.050303
20
187.289331
11
94.050314
21
187.289331
0
LINE
8
MODELSKETCH_VISIBLE
10
117.650278
20
248.123463
11
117.502907
21
248.673463
0
LINE
8
MODELSKETCH_VISIBLE
10
117.502907
20
248.673463
11
117.100279
21
249.076090
0
LINE
8
MODELSKETCH_VISIBLE
10
117.100279
20
249.076090
11
116.550280
21
249.223462
0
LINE
8
MODELSKETCH_VISIBLE
10
116.550280
20
249.223462
11
116.000281
21
249.076090
0
LINE
8
MODELSKETCH_VISIBLE
10
116.000281
20
249.076090
11
115.597653
21
248.673463
0
LINE
8
MODELSKETCH_VISIBLE
10
115.597653
20
248.673463
11
115.450281
21
248.123463
0
LINE
8
MODELSKETCH_VISIBLE
10
115.450281
20
248.123463
11
115.597653
21
247.573464
0
LINE
8
MODELSKETCH_VISIBLE
10
115.597653
20
247.573464
11
116.000281
21
247.170837
0
LINE
8
MODELSKETCH_VISIBLE
10
116.000281
20
247.170837
11
116.550280
21
247.023465
0
LINE
8
MODELSKETCH_VISIBLE
10
116.550280
20
247.023465
11
117.100279
21
247.170837
0
LINE
8
MODELSKETCH_VISIBLE
10
117.100279
20
247.170837
11
117.502907
21
247.573464
0
LINE
8
MODELSKETCH_VISIBLE
10
117.502907
20
247.573464
11
117.650278
21
248.123463
0
LINE
8
MODELSKETCH_VISIBLE
10
117.650278
20
248.123463
11
117.650278
21
248.123463
0
LINE
8
MODELSKETCH_VISIBLE
10
89.050303
20
192.289950
11
89.050303
21
187.289331
0
LINE
8
MODELSKETCH_VISIBLE
10
50.983697
20
181.456879
11
50.897253
21
181.885048
0
LINE
8
MODELSKETCH_VISIBLE
10
50.897253
20
181.885048
11
50.661515
21
182.234695
0
LINE
8
MODELSKETCH_VISIBLE
10
50.661515
20
182.234695
11
50.311867
21
182.470434
0
LINE
8
MODELSKETCH_VISIBLE
10
50.311867
20
182.470434
11
49.883698
21
182.556878
0
LINE
8
MODELSKETCH_VISIBLE
10
49.883698
20
182.556878
11
49.455529
21
182.470434
0
LINE
8
MODELSKETCH_VISIBLE
10
49.455529
20
182.470434
11
49.105882
21
182.234695
0
LINE
8
MODELSKETCH_VISIBLE
10
49.105882
20
182.234695
11
48.870143
21
181.885048
0
LINE
8
MODELSKETCH_VISIBLE
10
48.870143
20
181.885048
11
48.783700
21
181.456879
0
LINE
8
MODELSKETCH_VISIBLE
10
48.783700
20
181.456879
11
48.870143
21
181.028710
0
LINE
8
MODELSKETCH_VISIBLE
10
48.870143
20
181.028710
11
49.105882
21
180.679063
0
LINE
8
MODELSKETCH_VISIBLE
10
49.105882
20
180.679063
11
49.455529
21
180.443324
0
LINE
8
MODELSKETCH_VISIBLE
10
49.455529
20
180.443324
11
49.883698
21
180.356881
0
LINE
8
MODELSKETCH_VISIBLE
10
49.883698
20
180.356881
11
50.311867
21
180.443324
0
LINE
8
MODELSKETCH_VISIBLE
10
50.311867
20
180.443324
11
50.661515
21
180.679063
0
LINE
8
MODELSKETCH_VISIBLE
10
50.661515
20
180.679063
11
50.897253
21
181.028710
0
LINE
8
MODELSKETCH_VISIBLE
10
50.897253
20
181.028710
11
50.983697
21
181.456879
0
LINE
8
MODELSKETCH_VISIBLE
10
50.983697
20
181.456879
11
50.983697
21
181.456879
0
LINE
8
MODELSKETCH_VISIBLE
10
91.550322
20
187.289331
11
91.550322
21
183.540190
0
LINE
8
MODELSKETCH_VISIBLE
10
91.550322
20
175.623866
11
91.550322
21
179.373007
0
LINE
8
MODELSKETCH_VISIBLE
10
89.050303
20
175.623866
11
94.050314
21
175.623866
0
LINE
8
MODELSKETCH_VISIBLE
10
94.050314
20
175.623866
11
94.050314
21
170.623248
0
LINE
8
MODELSKETCH_VISIBLE
10
89.050303
20
170.623248
11
94.050314
21
170.623248
0
LINE
8
MODELSKETCH_VISIBLE
10
89.050303
20
175.623866
11
89.050303
21
170.623248
0
LINE
8
MODELSKETCH_VISIBLE
10
91.550322
20
158.957783
11
91.550322
21
162.706924
0
LINE
8
MODELSKETCH_VISIBLE
10
89.050303
20
158.957783
11
94.050314
21
158.957783
0
LINE
8
MODELSKETCH_VISIBLE
10
94.050314
20
158.957783
11
94.050314
21
153.957165
0
LINE
8
MODELSKETCH_VISIBLE
10
89.050303
20
153.957165
11
94.050314
21
153.957165
0
LINE
8
MODELSKETCH_VISIBLE
10
89.050303
20
158.957783
11
89.050303
21
153.957165
0
LINE
8
MODELSKETCH_VISIBLE
10
91.550322
20
153.957165
11
91.550322
21
150.208023
0
LINE
8
MODELSKETCH_VISIBLE
10
108.216961
20
275.623541
11
108.216961
21
279.373476
0
LINE
8
MODELSKETCH_VISIBLE
10
105.716969
20
275.623541
11
110.716952
21
275.623541
0
LINE
8
MODELSKETCH_VISIBLE
10
110.716952
20
275.623541
11
110.716952
21
270.623451
0
LINE
8
MODELSKETCH_VISIBLE
10
105.716969
20
270.623451
11
110.716952
21
270.623451
0
LINE
8
MODELSKETCH_VISIBLE
10
105.716969
20
275.623541
11
105.716969
21
270.623451
0
LINE
8
MODELSKETCH_VISIBLE
10
108.216961
20
270.623451
11
108.216961
21
266.873516
0
LINE
8
MODELSKETCH_VISIBLE
10
108.216961
20
258.956663
11
108.216961
21
262.706863
0
LINE
8
MODELSKETCH_VISIBLE
10
105.716969
20
258.956663
11
110.716952
21
258.956663
0
LINE
8
MODELSKETCH_VISIBLE
10
110.716952
20
258.956663
11
110.716952
21
253.956839
0
LINE
8
MODELSKETCH_VISIBLE
10
105.716969
20
253.956839
11
110.716952
21
253.956839
0
LINE
8
MODELSKETCH_VISIBLE
10
105.716969
20
258.956663
11
105.716969
21
253.956839
0
LINE
8
MODELSKETCH_VISIBLE
10
108.216961
20
253.956839
11
108.216961
21
250.206904
0
LINE
8
MODELSKETCH_VISIBLE
10
108.216961
20
242.290845
11
108.216961
21
246.039986
0
LINE
8
MODELSKETCH_VISIBLE
10
105.716969
20
242.290845
11
110.716952
21
242.290845
0
LINE
8
MODELSKETCH_VISIBLE
10
110.716952
20
242.290845
11
110.716952
21
237.290226
0
LINE
8
MODELSKETCH_VISIBLE
10
105.716969
20
237.290226
11
110.716952
21
237.290226
0
LINE
8
MODELSKETCH_VISIBLE
10
105.716969
20
242.290845
11
105.716969
21
237.290226
0
LINE
8
MODELSKETCH_VISIBLE
10
108.216961
20
237.290226
11
108.216961
21
233.541085
0
LINE
8
MODELSKETCH_VISIBLE
10
108.216961
20
225.624762
11
108.216961
21
229.373903
0
LINE
8
MODELSKETCH_VISIBLE
10
105.716969
20
225.624762
11
110.716952
21
225.624762
0
LINE
8
MODELSKETCH_VISIBLE
10
105.716969
20
225.624762
11
105.716969
21
220.624143
0
LINE
8
MODELSKETCH_VISIBLE
10
108.216961
20
220.624143
11
108.216961
21
216.872356
0
LINE
8
MODELSKETCH_VISIBLE
10
108.216961
20
208.956033
11
108.216961
21
212.707820
0
LINE
8
MODELSKETCH_VISIBLE
10
105.716969
20
208.956033
11
110.716952
21
208.956033
0
LINE
8
MODELSKETCH_VISIBLE
10
110.716952
20
208.956033
11
110.716952
21
203.958060
0
LINE
8
MODELSKETCH_VISIBLE
10
105.716969
20
203.958060
11
110.716952
21
203.958060
0
LINE
8
MODELSKETCH_VISIBLE
10
105.716969
20
208.956033
11
105.716969
21
203.958060
0
LINE
8
MODELSKETCH_VISIBLE
10
108.216961
20
203.958060
11
108.216961
21
200.206273
0
LINE
8
MODELSKETCH_VISIBLE
10
108.216961
20
192.289950
11
108.216961
21
196.039091
0
LINE
8
MODELSKETCH_VISIBLE
10
105.716969
20
192.289950
11
110.716952
21
192.289950
0
LINE
8
MODELSKETCH_VISIBLE
10
110.716952
20
192.289950
11
110.716952
21
187.289331
0
LINE
8
MODELSKETCH_VISIBLE
10
105.716969
20
187.289331
11
110.716952
21
187.289331
0
LINE
8
MODELSKETCH_VISIBLE
10
105.716969
20
192.289950
11
105.716969
21
187.289331
0
LINE
8
MODELSKETCH_VISIBLE
10
108.216961
20
187.289331
11
108.216961
21
183.540190
0
LINE
8
MODELSKETCH_VISIBLE
10
108.216961
20
175.623866
11
108.216961
21
179.373007
0
LINE
8
MODELSKETCH_VISIBLE
10
105.716969
20
175.623866
11
110.716952
21
175.623866
0
LINE
8
MODELSKETCH_VISIBLE
10
110.716952
20
175.623866
11
110.716952
21
170.623248
0
LINE
8
MODELSKETCH_VISIBLE
10
105.716969
20
170.623248
11
110.716952
21
170.623248
0
LINE
8
MODELSKETCH_VISIBLE
10
50.983697
20
248.123463
11
50.897253
21
248.551632
0
LINE
8
MODELSKETCH_VISIBLE
10
50.897253
20
248.551632
11
50.661515
21
248.901280
0
LINE
8
MODELSKETCH_VISIBLE
10
50.661515
20
248.901280
11
50.311867
21
249.137018
0
LINE
8
MODELSKETCH_VISIBLE
10
50.311867
20
249.137018
11
49.883698
21
249.223462
0
LINE
8
MODELSKETCH_VISIBLE
10
49.883698
20
249.223462
11
49.455529
21
249.137018
0
LINE
8
MODELSKETCH_VISIBLE
10
49.455529
20
249.137018
11
49.105882
21
248.901280
0
LINE
8
MODELSKETCH_VISIBLE
10
49.105882
20
248.901280
11
48.870143
21
248.551632
0
LINE
8
MODELSKETCH_VISIBLE
10
48.870143
20
248.551632
11
48.783700
21
248.123463
0
LINE
8
MODELSKETCH_VISIBLE
10
48.783700
20
248.123463
11
48.870143
21
247.695294
0
LINE
8
MODELSKETCH_VISIBLE
10
48.870143
20
247.695294
11
49.105882
21
247.345647
0
LINE
8
MODELSKETCH_VISIBLE
10
49.105882
20
247.345647
11
49.455529
21
247.109908
0
LINE
8
MODELSKETCH_VISIBLE
10
49.455529
20
247.109908
11
49.883698
21
247.023465
0
LINE
8
MODELSKETCH_VISIBLE
10
49.883698
20
247.023465
11
50.311867
21
247.109908
0
LINE
8
MODELSKETCH_VISIBLE
10
50.311867
20
247.109908
11
50.661515
21
247.345647
0
LINE
8
MODELSKETCH_VISIBLE
10
50.661515
20
247.345647
11
50.897253
21
247.695294
0
LINE
8
MODELSKETCH_VISIBLE
10
50.897253
20
247.695294
11
50.983697
21
248.123463
0
LINE
8
MODELSKETCH_VISIBLE
10
50.983697
20
248.123463
11
50.983697
21
248.123463
0
LINE
8
MODELSKETCH_VISIBLE
10
105.716969
20
175.623866
11
105.716969
21
170.623248
0
LINE
8
MODELSKETCH_VISIBLE
10
108.216961
20
170.623248
11
108.216961
21
166.874107
0
LINE
8
MODELSKETCH_VISIBLE
10
108.216961
20
158.957783
11
108.216961
21
162.706924
0
LINE
8
MODELSKETCH_VISIBLE
10
105.716969
20
158.957783
11
110.716952
21
158.957783
0
LINE
8
MODELSKETCH_VISIBLE
10
110.716952
20
158.957783
11
110.716952
21
153.957165
0
LINE
8
MODELSKETCH_VISIBLE
10
105.716969
20
153.957165
11
110.716952
21
153.957165
0
LINE
8
MODELSKETCH_VISIBLE
10
105.716969
20
158.957783
11
105.716969
21
153.957165
0
LINE
8
MODELSKETCH_VISIBLE
10
108.216961
20
153.957165
11
108.216961
21
150.208023
0
LINE
8
MODELSKETCH_VISIBLE
10
124.883520
20
275.623541
11
124.883520
21
279.373476
0
LINE
8
MODELSKETCH_VISIBLE
10
122.383475
20
275.623541
11
127.383565
21
275.623541
 0 
ENDSEC
 0 
EOF